<svg width="46" height="41" viewBox="0 0 46 41" fill="none" xmlns="http://www.w3.org/2000/svg">
<path fill-rule="evenodd" clip-rule="evenodd" d="M0.355743 0.355713V40.3557H16.3557L29.3557 27.5799L32.1277 24.8557L45.3557 11.8557V0.355713H0.355743ZM16.3557 17.3557V5.35571H29.3557L22.8557 11.3557L16.3557 17.3557Z" fill="#FFFBEB"/>
<path d="M29.3557 27.5799V40.3557H45.3557V24.8557H32.1277L29.3557 27.5799Z" fill="#FFFBEB"/>
<path d="M45.0081 25.2549C44.9487 25.2313 44.8627 25.2095 44.7401 25.2084C44.5651 25.207 44.3901 25.2053 44.2151 25.203C44.0433 25.2007 43.8701 25.2005 43.6983 25.203C43.5224 25.2055 43.3465 25.2078 43.1706 25.2084C42.9948 25.2091 42.8186 25.2089 42.6429 25.2084C42.4669 25.208 42.291 25.2056 42.1151 25.203H41.0679C40.8953 25.2019 40.7208 25.2031 40.5483 25.2057C40.3724 25.2084 40.1965 25.2107 40.0206 25.2112C39.8431 25.2116 39.6649 25.2092 39.4874 25.2057C39.3152 25.2023 39.1428 25.2002 38.9706 25.2002C38.7972 25.2003 38.6217 25.2032 38.4483 25.2057C38.2697 25.2082 38.091 25.2064 37.9124 25.203C37.742 25.1997 37.5715 25.2 37.4011 25.203C37.2236 25.2061 37.0454 25.2066 36.8679 25.2057C36.6935 25.2048 36.5172 25.2057 36.3429 25.2057C36.1691 25.2057 35.9943 25.2072 35.8206 25.2084C35.6439 25.2097 35.4668 25.2075 35.2901 25.2057C35.1163 25.2039 34.9417 25.2032 34.7679 25.203C34.5938 25.2028 34.4196 25.2049 34.2456 25.2057C34.0701 25.2066 33.8934 25.2058 33.7179 25.2057C33.5422 25.2056 33.3658 25.2047 33.1901 25.203C33.0169 25.2013 32.8438 25.1998 32.6706 25.2002C32.4969 25.2007 32.3647 25.2043 32.2741 25.2057C32.2211 25.2593 32.1422 25.3386 32.0389 25.4409C31.9142 25.5646 31.7875 25.6874 31.6616 25.81C31.5356 25.9328 31.4088 26.055 31.2815 26.1764C31.1565 26.2957 31.0328 26.4162 30.9096 26.5374C30.7845 26.6605 30.6582 26.7842 30.5323 26.9065C30.4086 27.0265 30.2868 27.1501 30.1659 27.2729C30.0479 27.3927 29.8915 27.541 29.7038 27.7241C29.7049 27.9873 29.7064 28.2035 29.7038 28.3721C29.7011 28.5423 29.7023 28.7132 29.7065 28.8834C29.711 29.0629 29.7117 29.2426 29.7093 29.4221C29.7069 29.5968 29.7057 29.7725 29.7038 29.9471V30.9944C29.7028 31.1666 29.7041 31.3389 29.7065 31.5112C29.709 31.6876 29.7089 31.8653 29.7093 32.0416C29.7096 32.2166 29.7121 32.3917 29.712 32.5666C29.7119 32.7431 29.7088 32.9207 29.7065 33.0971C29.7043 33.2693 29.7047 33.4418 29.7065 33.6139C29.7084 33.7897 29.7087 33.9659 29.7093 34.1416C29.7098 34.3181 29.7111 34.4957 29.7093 34.6721C29.7075 34.8452 29.706 35.0186 29.7065 35.1916C29.707 35.3685 29.7065 35.5453 29.7038 35.7221C29.7012 35.8932 29.7007 36.0651 29.7038 36.2362C29.707 36.4135 29.7097 36.592 29.7093 36.7694C29.7088 36.9452 29.706 37.1213 29.7038 37.2971C29.7016 37.4703 29.7012 37.6435 29.7011 37.8166V39.3916C29.701 39.5646 29.7035 39.7382 29.7065 39.9112C29.7069 39.934 29.71 39.9497 29.712 39.9604C29.7635 39.982 29.8421 40.0026 29.9636 40.0014C30.1402 39.9997 30.3174 40.0006 30.494 40.0014C30.6687 40.0022 30.8443 40.0038 31.019 40.0041C31.1922 40.0045 31.3654 40.0028 31.5386 40.0014C31.7156 40 31.8947 39.9996 32.0718 40.0014C32.2449 40.0031 32.4181 40.0045 32.5913 40.0041C32.768 40.0038 32.9451 40.0046 33.1218 40.0069C33.2948 40.0091 33.4683 40.0104 33.6413 40.0096C33.8152 40.0089 33.9896 40.0063 34.1636 40.0041H35.744C35.9193 40.0056 36.0965 40.0078 36.2718 40.0096C36.4438 40.0114 36.6165 40.0118 36.7886 40.0096C36.9645 40.0074 37.1404 40.0046 37.3163 40.0041C37.493 40.0037 37.67 40.0047 37.8468 40.0069C38.019 40.009 38.1913 40.011 38.3636 40.0096C38.5406 40.0082 38.7197 40.0079 38.8968 40.0096C39.0705 40.0113 39.2453 40.0121 39.419 40.0124C39.5913 40.0126 39.7636 40.0099 39.9358 40.0069C40.1143 40.0038 40.2933 40.0042 40.4718 40.0069C40.6446 40.0095 40.8184 40.0096 40.9913 40.0096C41.165 40.0096 41.3398 40.0109 41.5136 40.0096C41.6891 40.0083 41.8658 40.0068 42.0413 40.0069C42.2149 40.007 42.3899 40.0061 42.5636 40.0041H43.6108C43.7884 40.001 43.9664 40.0002 44.144 40.0014C44.3204 40.0026 44.4981 40.0036 44.6745 40.0069C44.8022 40.0092 44.9113 39.9959 45.0054 39.9768C45.0085 39.8077 45.0083 39.6373 45.0081 39.4682C45.0078 39.2932 45.0099 39.1182 45.0108 38.9432L45.0081 38.4237C45.0059 38.2473 45.0054 38.0696 45.0054 37.8932C45.0053 37.7173 45.0056 37.5414 45.0081 37.3655C45.0105 37.1928 45.0111 37.0187 45.0108 36.8459C45.0106 36.6723 45.0101 36.4973 45.0081 36.3237L45.0054 35.7932C45.0064 35.6205 45.0078 35.4464 45.0054 35.2737C45.0029 35.0959 45.0006 34.9182 45.0026 34.7405C45.0045 34.5669 45.0055 34.3918 45.0054 34.2182L45.0108 33.1682L45.0054 32.6487C45.0025 32.4711 45.0037 32.2931 45.0054 32.1155C45.0069 31.9416 45.008 31.767 45.0081 31.5932C45.0081 31.4174 45.0092 31.2413 45.0108 31.0655C45.0124 30.8932 45.0099 30.7209 45.0081 30.5487V28.4487C45.0055 28.271 45.0035 28.0932 45.0054 27.9155V26.8655C45.0073 26.6933 45.0049 26.5209 45.0026 26.3487C45.0003 26.1695 45.0013 25.9892 45.0054 25.81C45.0092 25.6382 45.011 25.4651 45.0108 25.2932C45.0108 25.2768 45.0094 25.2644 45.0081 25.2549ZM25.6186 5.00415C25.7937 5.00499 25.9713 5.00599 26.1464 5.00688C26.3214 5.00779 26.4964 5.00792 26.6714 5.00962C26.8435 5.01129 27.016 5.01212 27.1882 5.00962C27.3649 5.00705 27.5419 5.00414 27.7186 5.00415C27.8927 5.00416 28.0668 5.00535 28.2409 5.00415C28.4191 5.00292 28.5986 5.00311 28.7768 5.00688C28.8758 5.00902 28.9707 5.01741 29.0557 5.03423C29.0957 5.04217 29.141 5.05256 29.187 5.06978L29.3237 5.1436L29.4249 5.24751C29.454 5.28997 29.479 5.34019 29.4905 5.3979C29.5114 5.50372 29.4857 5.59494 29.4604 5.65493C29.4134 5.76613 29.3265 5.85886 29.2554 5.92563C29.1264 6.04656 28.9953 6.16511 28.8643 6.28384C28.7353 6.40083 28.607 6.5187 28.4788 6.63657C28.3516 6.7535 28.2265 6.87278 28.1014 6.99204C27.9732 7.11439 27.8438 7.23594 27.7132 7.35571C27.5836 7.47449 27.4525 7.59327 27.3221 7.71118C27.1939 7.82717 27.0661 7.94356 26.9393 8.06118C26.8112 8.18007 26.6816 8.30024 26.5538 8.41938C26.4259 8.53852 26.2989 8.65858 26.171 8.77759C26.0418 8.89775 25.9107 9.01724 25.78 9.13579C25.6504 9.25326 25.5215 9.37138 25.3917 9.48853C25.2629 9.60472 25.1336 9.72094 25.0061 9.83853C24.8796 9.95525 24.7525 10.0742 24.6288 10.194C24.5009 10.3179 24.3718 10.4403 24.2405 10.5604C24.1107 10.6791 23.9802 10.7981 23.8495 10.9159C23.7215 11.0312 23.5949 11.1479 23.4694 11.2659C23.3413 11.3864 23.213 11.5073 23.0839 11.6268C22.9561 11.7451 22.8282 11.8633 22.7011 11.9823C22.5727 12.1025 22.442 12.2212 22.3128 12.3405C22.182 12.4611 22.0502 12.5814 21.9163 12.6987C21.7872 12.8118 21.6593 12.9266 21.5335 13.0432C21.4072 13.1602 21.2827 13.2791 21.1589 13.3987C21.0302 13.5229 20.8977 13.6452 20.7651 13.7651C20.6354 13.8824 20.5067 14.0007 20.3768 14.1178C20.2496 14.2326 20.1235 14.3495 19.9995 14.4678C19.8715 14.59 19.7415 14.7117 19.6112 14.8315C19.4828 14.9495 19.3534 15.0682 19.2257 15.187C19.0974 15.3061 18.9686 15.4263 18.8401 15.5452C18.7118 15.6639 18.5832 15.7823 18.4546 15.9006C18.3255 16.0193 18.1956 16.1378 18.0663 16.2561C17.9383 16.3732 17.8104 16.4905 17.6835 16.6088C17.5534 16.7302 17.4201 16.8517 17.287 16.9698C17.1602 17.0822 17.0368 17.1991 16.9151 17.317C16.7917 17.4367 16.6989 17.5214 16.6471 17.5659C16.596 17.6098 16.4294 17.7221 16.2315 17.6206C16.0888 17.5466 16.0461 17.4079 16.0374 17.3799C16.0095 17.2904 16.0052 17.1823 16.0046 17.0956C16.0033 16.9206 16.0027 16.7456 16.0018 16.5706C16.0009 16.3948 15.9989 16.2185 15.9991 16.0428L16.0018 15.5178C16.0024 15.3422 16.0025 15.1657 16.0046 14.9901C16.0066 14.8183 16.0073 14.6451 16.0046 14.4733C16.0018 14.2965 15.9986 14.1196 15.9991 13.9428C15.9996 13.7682 16.0019 13.5925 16.0018 13.4178C16.0018 13.2429 16.0017 13.0678 16.0018 12.8928C16.002 12.716 16.0038 12.5392 16.0073 12.3624C16.0107 12.1908 16.0116 12.0172 16.01 11.8456C16.0084 11.6697 16.0072 11.4937 16.0073 11.3178V9.74282C16.008 9.56758 16.0089 9.39033 16.01 9.21509C16.0111 9.04383 16.0085 8.87228 16.0046 8.70103L15.9991 8.16782C15.9998 7.99404 15.9996 7.81934 15.9991 7.64556C15.9986 7.46756 16.0005 7.28761 16.0046 7.10962C16.0085 6.93859 16.0117 6.76658 16.01 6.59556L16.0073 6.06782C16.0082 5.87806 16.0211 5.69732 16.0483 5.52915L16.1221 5.31587C16.1593 5.24919 16.2095 5.18627 16.278 5.1354C16.4085 5.03853 16.5611 5.01225 16.6936 5.01235C16.8668 5.01249 17.04 5.01213 17.2132 5.00962C17.3891 5.00707 17.565 5.0053 17.7409 5.00415C17.9191 5.00299 18.0986 5.00317 18.2768 5.00688C18.4482 5.01045 18.6195 5.01062 18.7909 5.00962C18.9658 5.00859 19.141 5.01024 19.3159 5.00962C19.4896 5.009 19.6644 5.00618 19.8382 5.00415C20.0153 5.00208 20.1942 5.00293 20.3714 5.00415C20.5469 5.00536 20.7235 5.0072 20.8991 5.00962C21.072 5.01199 21.2458 5.0126 21.4186 5.01235C21.5927 5.01211 21.7668 5.01024 21.9409 5.00962C22.1153 5.00899 22.2915 5.00843 22.4659 5.00688C22.6424 5.00532 22.8199 5.00579 22.9964 5.00688C23.1692 5.00795 23.3431 5.00587 23.5159 5.00415C23.6927 5.0024 23.8695 5.0051 24.0464 5.00688C24.2185 5.00863 24.391 5.00616 24.5632 5.00415C24.7396 5.00208 24.9172 5.00134 25.0936 5.00142C25.2686 5.00149 25.4436 5.00331 25.6186 5.00415ZM45.7054 25.8264C45.7015 25.9973 45.7004 26.1696 45.7026 26.3405C45.7049 26.518 45.7073 26.6962 45.7054 26.8737V27.9237C45.7036 28.095 45.7056 28.2664 45.7081 28.4377V30.5405C45.7099 30.7178 45.7125 30.8964 45.7108 31.0737C45.7092 31.2469 45.7081 31.42 45.7081 31.5932C45.708 31.7688 45.7069 31.9454 45.7054 32.1209C45.7038 32.2928 45.7026 32.4659 45.7054 32.6377C45.7082 32.815 45.7114 32.9937 45.7108 33.1709C45.7103 33.3459 45.7091 33.5209 45.7081 33.6959C45.7071 33.87 45.7052 34.0442 45.7054 34.2182C45.7055 34.3946 45.7046 34.5723 45.7026 34.7487C45.7007 34.9205 45.703 35.0936 45.7054 35.2655C45.7078 35.4423 45.7064 35.6191 45.7054 35.7959C45.7043 35.9689 45.706 36.1426 45.7081 36.3155C45.7102 36.4914 45.7106 36.6673 45.7108 36.8432C45.7111 37.0199 45.7106 37.197 45.7081 37.3737C45.7056 37.5467 45.7053 37.7202 45.7054 37.8932C45.7054 38.0668 45.7059 38.2419 45.7081 38.4155C45.7103 38.5923 45.7117 38.7692 45.7108 38.9459C45.7099 39.12 45.7078 39.2941 45.7081 39.4682C45.7083 39.6456 45.7088 39.824 45.7054 40.0014C45.7028 40.1318 45.6733 40.2748 45.5878 40.4006C45.4973 40.5335 45.3652 40.614 45.2241 40.6495C45.049 40.6934 44.86 40.7105 44.6608 40.7069C44.4876 40.7037 44.3145 40.7026 44.1413 40.7014C43.9694 40.7003 43.7964 40.7011 43.6245 40.7041H42.5718C42.3954 40.7061 42.2176 40.707 42.0413 40.7069C41.8675 40.7068 41.6928 40.7083 41.519 40.7096C41.3435 40.7109 41.1668 40.7096 40.9913 40.7096C40.8149 40.7096 40.6372 40.7095 40.4608 40.7069C40.2904 40.7043 40.1199 40.7039 39.9495 40.7069C39.7723 40.71 39.5935 40.7126 39.4163 40.7124C39.2405 40.7121 39.0643 40.7113 38.8886 40.7096C38.7158 40.708 38.5418 40.7082 38.369 40.7096C38.1922 40.711 38.0154 40.709 37.8386 40.7069C37.6655 40.7048 37.492 40.7037 37.319 40.7041C37.1452 40.7046 36.9706 40.7074 36.7968 40.7096C36.6191 40.7119 36.4412 40.7115 36.2636 40.7096C36.0889 40.7078 35.9133 40.7056 35.7386 40.7041H34.1718C33.9959 40.7063 33.8199 40.7089 33.644 40.7096C33.4673 40.7104 33.2903 40.7091 33.1136 40.7069C32.9406 40.7047 32.767 40.7038 32.594 40.7041C32.4176 40.7045 32.2399 40.7032 32.0636 40.7014C31.8907 40.6997 31.7168 40.7001 31.544 40.7014C31.3682 40.7028 31.1921 40.7045 31.0163 40.7041C30.8413 40.7038 30.6663 40.7022 30.4913 40.7014C30.3183 40.7006 30.1448 40.6997 29.9718 40.7014C29.7597 40.7035 29.5527 40.6698 29.3729 40.5784C29.1033 40.4406 29.0112 40.1753 29.0065 39.9249C29.0034 39.7478 29.001 39.5687 29.0011 39.3916V37.8166C29.0012 37.6407 29.0015 37.4648 29.0038 37.2889C29.006 37.1152 29.0088 36.9404 29.0093 36.7666L29.0038 36.2499C29.0006 36.071 29.001 35.8901 29.0038 35.7112C29.0064 35.5389 29.007 35.3666 29.0065 35.1944C29.006 35.0179 29.0074 34.8404 29.0093 34.6639C29.011 34.4908 29.0098 34.3175 29.0093 34.1444C29.0087 33.9706 29.0084 33.7959 29.0065 33.6221C29.0046 33.4447 29.0042 33.2663 29.0065 33.0889C29.0088 32.9154 29.0119 32.7402 29.012 32.5666L29.0065 31.5221C29.0041 31.3448 29.0027 31.1662 29.0038 30.9889V29.9389C29.0057 29.7636 29.0068 29.5865 29.0093 29.4112C29.0116 29.2411 29.0108 29.0699 29.0065 28.8999C29.0025 28.7394 29.002 28.579 29.0038 28.4186C28.89 28.53 28.7769 28.642 28.662 28.7522C28.5383 28.8709 28.4157 28.9909 28.2956 29.1131C28.1719 29.239 28.0464 29.3637 27.921 29.4877C27.7948 29.6126 27.6671 29.7375 27.5382 29.8596C27.4137 29.9776 27.29 30.0964 27.169 30.2178C27.044 30.3433 26.9191 30.4693 26.7917 30.5924C26.6661 30.7138 26.5397 30.8345 26.4143 30.9561C26.2909 31.0758 26.1686 31.1973 26.0479 31.3198C25.9234 31.4462 25.7979 31.5734 25.6706 31.6971C25.5454 31.8187 25.4179 31.9387 25.2932 32.0608C25.168 32.1835 25.0445 32.3079 24.9186 32.4299C24.7949 32.5499 24.6705 32.6708 24.5495 32.7936C24.4257 32.9193 24.3004 33.0443 24.1749 33.1682C24.0502 33.2914 23.9259 33.4151 23.8003 33.5374C23.6758 33.6584 23.5515 33.7813 23.4284 33.9038C23.3032 34.0283 23.1752 34.1528 23.0483 34.2756C22.9233 34.3967 22.7986 34.5181 22.6737 34.6393C22.5491 34.7603 22.4251 34.8833 22.3018 35.0057C22.1775 35.1293 22.0524 35.2521 21.9272 35.3749C21.8032 35.4965 21.6781 35.6183 21.5554 35.7413C21.43 35.8669 21.3032 35.9929 21.1753 36.1159C21.0507 36.2356 20.9264 36.3556 20.8034 36.4768C20.6788 36.5996 20.5537 36.7234 20.4288 36.8459C20.3036 36.9688 20.1771 37.0927 20.0514 37.2151C19.9268 37.3365 19.8033 37.4592 19.6796 37.5815C19.5553 37.7042 19.429 37.8249 19.305 37.9479C19.1809 38.0709 19.0568 38.1964 18.9331 38.3198C18.8089 38.4435 18.6835 38.5661 18.5585 38.6889C18.433 38.8123 18.3077 38.9358 18.1811 39.0581C18.0561 39.1788 17.9304 39.2997 17.8065 39.4217C17.6812 39.5452 17.5562 39.6691 17.4292 39.7909C17.3037 39.9113 17.1762 40.033 17.0518 40.1545C16.9112 40.2918 16.7618 40.4133 16.6034 40.5155C16.4061 40.6426 16.1837 40.7027 15.9471 40.7041C15.7714 40.7052 15.5951 40.707 15.4194 40.7069C15.2462 40.7068 15.0731 40.7079 14.8999 40.7096C14.7211 40.7114 14.54 40.7109 14.3612 40.7069C14.1908 40.703 14.0203 40.7021 13.8499 40.7041C13.6732 40.7063 13.4961 40.705 13.3194 40.7041C13.1466 40.7033 12.9727 40.7048 12.7999 40.7069C12.6214 40.709 12.4424 40.708 12.2639 40.7041C12.0921 40.7004 11.919 40.7006 11.7471 40.7014C11.5741 40.7022 11.4007 40.7038 11.2276 40.7069C11.0505 40.7101 10.8716 40.7097 10.6944 40.7096C10.5185 40.7095 10.3426 40.7088 10.1667 40.7069C9.99177 40.705 9.81659 40.7032 9.64168 40.7014C9.47042 40.6997 9.29888 40.7004 9.12762 40.7041C8.94806 40.7081 8.76851 40.7105 8.58895 40.7069C8.41879 40.7035 8.24778 40.7032 8.07762 40.7069C7.89989 40.7107 7.72215 40.7105 7.54442 40.7096C7.37067 40.7087 7.1959 40.7088 7.02215 40.7096C6.84452 40.7104 6.66658 40.7103 6.48895 40.7069C6.31805 40.7036 6.14578 40.7041 5.97488 40.7069C5.79814 40.7097 5.62116 40.7099 5.44442 40.7096C5.26864 40.7093 5.09246 40.7085 4.91668 40.7069H3.86395C3.69076 40.7041 3.5176 40.7019 3.34442 40.7014C3.17165 40.701 2.99765 40.7013 2.82488 40.7041C2.64659 40.7071 2.46724 40.7068 2.28895 40.7041C2.11588 40.7016 1.94248 40.7017 1.76942 40.7014C1.59647 40.7012 1.42283 40.7015 1.24988 40.7041C1.07214 40.7069 0.894422 40.7062 0.716681 40.7041C0.58614 40.7026 0.441525 40.6773 0.314728 40.592C0.180977 40.5019 0.101692 40.3695 0.0658997 40.2284C0.021229 40.0522 0.00143842 39.8624 0.00574341 39.6624C0.00943938 39.4905 0.0119784 39.3174 0.0112122 39.1456C0.0104356 38.9724 0.00848146 38.7992 0.00574341 38.626C0.00291941 38.4475 0.00287984 38.2686 0.00574341 38.0901C0.00851637 37.9175 0.00931868 37.7431 0.00847779 37.5706C0.00762793 37.3967 0.00766473 37.2221 0.00574341 37.0483C0.00380412 36.8727 0.000885142 36.6962 0.000274664 36.5206C-0.00033255 36.3456 0.000225687 36.1706 0.000274664 35.9956C0.000324436 35.8198 0.00142252 35.6436 0.00300904 35.4678C0.00457132 35.295 0.00467532 35.1211 0.00300904 34.9483C0.00129132 34.7699 0.00206716 34.5908 0.00574341 34.4124C0.00928422 34.2403 0.0116368 34.0677 0.0112122 33.8956C0.0107817 33.7215 0.00984749 33.5474 0.00847779 33.3733C0.00710117 33.1984 0.00442639 33.0232 0.00300904 32.8483C0.00157876 32.6718 0.00220238 32.4943 0.00300904 32.3178C0.00381519 32.142 0.00602159 31.9659 0.00847779 31.7901C0.0108892 31.6173 0.00929727 31.4433 0.00847779 31.2706C0.00765141 31.0965 0.00676894 30.9224 0.00574341 30.7483V28.651C0.00289728 28.4737 0.00225424 28.2952 0.00300904 28.1178C0.00375885 27.9422 0.00358623 27.7657 0.00574341 27.5901C0.00785256 27.4179 0.00736892 27.2455 0.00574341 27.0733C0.00408731 26.8978 0.00383685 26.721 0.00300904 26.5456C0.00218566 26.3706 0.00294755 26.1956 0.00300904 26.0206C0.00307213 25.8434 0.00507501 25.6646 0.00847779 25.4874C0.0117384 25.3169 0.0107737 25.1465 0.00847779 24.976C0.00608858 24.7996 0.00578461 24.622 0.00574341 24.4456V22.8651C0.00842637 22.692 0.0108705 22.5186 0.0112122 22.3456C0.0115504 22.1718 0.0121011 21.997 0.0112122 21.8233C0.0103112 21.6478 0.0085653 21.471 0.00847779 21.2956C0.00839084 21.1206 0.00864574 20.9455 0.00847779 20.7706C0.00831152 20.5974 0.00570043 20.4242 0.00300904 20.251C0.00021869 20.0716 0.00162408 19.8918 0.00574341 19.7124C0.00968944 19.5406 0.0120423 19.3673 0.0112122 19.1956C0.0103701 19.0225 0.0088086 18.8491 0.00574341 18.676C0.00259842 18.4983 0.00148156 18.3206 0.00300904 18.1428C0.00449855 17.9701 0.00495227 17.796 0.00300904 17.6233C0.00100869 17.4446 0.00124465 17.266 0.00574341 17.0874C0.0100158 16.9181 0.00970727 16.748 0.00574341 16.5788C0.00157875 16.4012 0.000596014 16.2231 0.000274664 16.0456C-4.47049e-05 15.8678 0.00136117 15.6901 0.00574341 15.5124C0.00996856 15.3413 0.0121871 15.1694 0.0112122 14.9983C0.0102005 14.8227 0.00845309 14.6461 0.00847779 14.4706C0.00850321 14.2957 0.00822801 14.1204 0.00847779 13.9456C0.00872512 13.7727 0.0086205 13.5989 0.00574341 13.426C0.00277773 13.2478 0.0010758 13.0683 0.00300904 12.8901C0.00488381 12.7169 0.00818763 12.5437 0.00847779 12.3706C0.00876909 12.195 0.00952286 12.0184 0.0112122 11.8428V10.7956C0.0114831 10.623 0.00909205 10.4486 0.00574341 10.276C0.00230589 10.0985 0.00210235 9.92036 0.00300904 9.74282L0.00847779 8.69282C0.0102905 8.51955 0.00923686 8.34382 0.00847779 8.17056C0.00771532 7.99739 0.00819793 7.8242 0.00574341 7.65103C0.00320119 7.47187 0.00191261 7.2915 0.00574341 7.11235C0.00938448 6.9419 0.0106531 6.77148 0.00847779 6.60103C0.00622294 6.42556 0.00449369 6.24876 0.00300904 6.07329C0.00150579 5.8956 0.00264228 5.71778 0.00574341 5.54009C0.0087525 5.36816 0.00996575 5.19521 0.00847779 5.02329C0.00696394 4.84845 0.00475963 4.67313 0.00300904 4.49829C0.0012449 4.32192 -0.000237216 4.14419 0.000274664 3.96782C0.000788361 3.79222 0.0036509 3.61569 0.00574341 3.44009C0.0077875 3.26797 0.00748364 3.09541 0.00574341 2.92329C0.00396627 2.74739 0.00321361 2.57145 0.00300904 2.39556C0.00280459 2.21964 0.00414555 2.04374 0.00574341 1.86782C0.00733321 1.6931 0.00695554 1.51755 0.00847779 1.34282C0.00997577 1.17087 0.011475 0.997976 0.00847779 0.826025C0.0042158 0.578403 0.0821945 0.314855 0.331134 0.158838L0.473322 0.0850098C0.620986 0.0257364 0.782736 0.00601587 0.946368 0.00844727C1.1174 0.0109988 1.2894 0.00897697 1.46043 0.0057129C1.63987 0.00229987 1.81966 0.00186617 1.9991 0.0057129C2.16956 0.00936324 2.33998 0.0107767 2.51043 0.00844727C2.68589 0.0060371 2.8627 0.00469617 3.03817 0.00297852C3.2165 0.00123597 3.39577 0.00220467 3.5741 0.0057129C3.74637 0.00909525 3.91864 0.0113137 4.0909 0.0111816C4.26486 0.0110476 4.43921 0.0101345 4.61317 0.00844727C4.79047 0.00672951 4.96906 0.0065165 5.14637 0.00844727C5.31773 0.0103025 5.48907 0.00809652 5.66043 0.0057129C5.83877 0.00322421 6.01803 0.00564719 6.19637 0.00844727C6.36733 0.0111352 6.53947 0.00894312 6.71043 0.0057129C6.88781 0.00236746 7.06626 0.00231172 7.24363 0.00297852C7.41954 0.00364358 7.59546 0.00588856 7.77137 0.00844727C7.94246 0.0109356 8.11434 0.00894421 8.28543 0.0057129C8.46298 0.00236599 8.64109 0.00206023 8.81863 0.00297852C8.99363 0.0038844 9.16864 0.00409917 9.34363 0.0057129C9.51548 0.00729875 9.68858 0.00603231 9.86043 0.00297852C10.0397 -0.000201968 10.2198 0.00213005 10.3991 0.0057129H11.4491C11.6209 0.00932942 11.7941 0.00925238 11.9659 0.00844727C12.1409 0.00762994 12.3159 0.00818702 12.4909 0.00844727C12.6647 0.00870754 12.8394 0.00712901 13.0132 0.0057129C13.1899 0.00427202 13.3669 0.00383671 13.5436 0.0057129C13.7164 0.00755487 13.8904 0.00950547 14.0632 0.00844727C14.2388 0.00736609 14.4153 0.00540667 14.5909 0.0057129C14.7665 0.00602168 14.9431 0.00693191 15.1186 0.00844727C15.2906 0.00993292 15.4635 0.0114347 15.6354 0.00844727C15.8113 0.00539208 15.9872 0.00131321 16.1632 0.000244147C16.3415 -0.000835793 16.5208 0.00159071 16.6991 0.0057129C16.8703 0.00967194 17.042 0.0101298 17.2132 0.00844727C17.39 0.0067111 17.5668 0.00710018 17.7436 0.00844727C17.9181 0.00977823 18.0942 0.0106334 18.2686 0.0111816C18.4427 0.0117276 18.6168 0.0110801 18.7909 0.0111816C18.9639 0.0112821 19.1374 0.0108134 19.3104 0.00844727C19.4857 0.00604453 19.6629 0.00492448 19.8382 0.00297852C20.0147 0.00102291 20.1921 -0.00051045 20.3686 0.000244147C20.5445 0.00100001 20.7205 0.00256635 20.8964 0.0057129C21.0673 0.00877619 21.2395 0.0108391 21.4104 0.00844727C21.586 0.00598029 21.7626 0.00410544 21.9382 0.00297852C22.1147 0.00184782 22.2921 0.00115818 22.4686 0.00297852C22.6414 0.00476673 22.8154 0.00668888 22.9882 0.0057129C23.1645 0.00471055 23.3423 0.00467886 23.5186 0.0057129C23.6916 0.00672555 23.8652 0.00477114 24.0382 0.00297852H25.0882C25.2659 0.00128581 25.4436 0.00265236 25.6214 0.0057129C25.7933 0.0086818 25.9662 0.00955547 26.1382 0.00844727C26.3129 0.00731453 26.4884 0.00662287 26.6632 0.0057129C26.8383 0.00480121 27.0157 0.00365533 27.1909 0.00297852C27.3668 0.00230317 27.5427 0.00131717 27.7186 0.00297852C27.8933 0.0046325 28.0689 0.0071557 28.2436 0.00844727C28.4158 0.0097203 28.5882 0.0081603 28.7604 0.0057129C28.9388 0.00317154 29.118 0.00537564 29.2964 0.00844727H30.3464C30.5195 0.0109874 30.6927 0.0112148 30.8659 0.0111816H31.9186C32.0918 0.0121679 32.265 0.00999959 32.4382 0.00844727C32.6139 0.00687232 32.7902 0.00621555 32.9659 0.0057129C33.1418 0.00521221 33.3177 0.00681542 33.4936 0.00844727C33.6654 0.0100439 33.8387 0.00890837 34.0104 0.0057129H35.0604C35.2379 0.00311778 35.4161 0.00168582 35.5936 0.00297852H37.6909C37.8673 0.00311977 38.045 0.00349884 38.2214 0.0057129C38.3945 0.00788406 38.5677 0.00832604 38.7409 0.00844727C38.9139 0.00856598 39.0875 0.00823826 39.2604 0.0057129H40.8491C41.02 0.00933093 41.1922 0.0106048 41.3632 0.00844727C41.5391 0.00623301 41.715 0.00539964 41.8909 0.0057129C42.0647 0.00602702 42.2394 0.00412269 42.4132 0.00297852C42.5886 0.00182142 42.7655 0.000815283 42.9409 0.000244147C43.1177 -0.00032664 43.2945 0.00287571 43.4714 0.0057129C43.6435 0.00847731 43.8161 0.0093386 43.9882 0.00844727C44.1627 0.00753398 44.3386 0.0070533 44.5132 0.0057129C44.6907 0.0043494 44.8688 0.00321399 45.0464 0.0057129C45.1816 0.00764191 45.3374 0.0400851 45.4675 0.1479C45.603 0.260443 45.6603 0.414205 45.6753 0.558057C45.6927 0.726695 45.7018 0.903693 45.7026 1.08853C45.7034 1.26223 45.7057 1.43709 45.7081 1.61079V3.19673C45.7052 3.36856 45.7036 3.5417 45.7054 3.71353V4.76353C45.707 4.93917 45.7077 5.11561 45.7081 5.29126C45.7085 5.46606 45.7078 5.64146 45.7081 5.81626C45.7084 5.99308 45.7087 6.16991 45.7054 6.34673C45.7021 6.5177 45.7 6.68982 45.7026 6.86079V7.91353C45.7043 8.08918 45.705 8.2656 45.7054 8.44126C45.7057 8.61589 45.7075 8.79163 45.7081 8.96626C45.7086 9.14308 45.7056 9.3199 45.7026 9.49673C45.6998 9.66797 45.7 9.83955 45.7026 10.0108C45.7053 10.1875 45.708 10.3646 45.7081 10.5413V11.5913C45.7087 11.8592 45.6103 12.0989 45.421 12.2885C45.296 12.4137 45.1699 12.5374 45.0436 12.6604C44.9184 12.7824 44.7914 12.9046 44.6663 13.0268C44.542 13.1482 44.4176 13.2708 44.2944 13.3932C44.17 13.5168 44.0453 13.64 43.9198 13.7624C43.7939 13.8851 43.6666 14.0097 43.5397 14.1315C43.4142 14.252 43.2873 14.3712 43.1624 14.4924L42.4186 15.2362C42.2944 15.3546 42.1705 15.4754 42.0495 15.5971C41.9243 15.7231 41.7977 15.8488 41.6694 15.9717C41.5441 16.0918 41.4187 16.2138 41.2948 16.3354C41.1702 16.4578 41.045 16.5796 40.9202 16.7018C40.7967 16.8227 40.6723 16.945 40.5511 17.0682C40.4267 17.1946 40.3011 17.3196 40.1737 17.4428C40.0489 17.5635 39.9251 17.6871 39.8018 17.8092C39.6768 17.9331 39.5507 18.0557 39.4245 18.1784C39.3007 18.2987 39.1771 18.4196 39.0554 18.542C38.9311 18.667 38.8062 18.793 38.6807 18.9167C38.5546 19.0411 38.4265 19.1638 38.2979 19.2858C38.1732 19.4041 38.0503 19.5252 37.9288 19.6467C37.8053 19.7703 37.6809 19.8929 37.5569 20.0159C37.4322 20.1396 37.305 20.2648 37.1796 20.3877L36.4249 21.1206C36.3 21.2418 36.1746 21.3624 36.0503 21.4842C35.9254 21.6066 35.8004 21.7308 35.6757 21.8534C35.552 21.9749 35.429 22.097 35.3065 22.2198C35.1823 22.3443 35.057 22.4681 34.9319 22.5917C34.8068 22.7153 34.6806 22.8382 34.5546 22.9608C34.4298 23.0821 34.3067 23.2051 34.1827 23.3272C34.0589 23.4491 33.9361 23.5731 33.8136 23.6963C33.6876 23.8229 33.5583 23.946 33.428 24.0682C33.3023 24.1861 33.1764 24.3057 33.0534 24.4264C33.0281 24.4512 33.002 24.4754 32.9768 24.5002C33.0504 24.5006 33.1248 24.5023 33.1983 24.503C33.372 24.5046 33.5469 24.5057 33.7206 24.5057C33.8945 24.5058 34.0689 24.5066 34.2429 24.5057C34.4184 24.5048 34.595 24.5028 34.7706 24.503C34.9463 24.5032 35.1226 24.5039 35.2983 24.5057C35.4711 24.5075 35.6451 24.5097 35.8179 24.5084C35.9929 24.5072 36.1679 24.5057 36.3429 24.5057C36.5183 24.5057 36.6951 24.5048 36.8706 24.5057C37.0427 24.5066 37.2152 24.506 37.3874 24.503C37.5667 24.4998 37.7467 24.4995 37.9261 24.503C38.0971 24.5063 38.2691 24.5081 38.4401 24.5057C38.616 24.5032 38.7919 24.5003 38.9679 24.5002C39.1452 24.5002 39.3237 24.5022 39.5011 24.5057C39.6733 24.5091 39.8456 24.5116 40.0179 24.5112C40.1914 24.5108 40.3666 24.5083 40.5401 24.5057C40.7169 24.5031 40.8938 24.5019 41.0706 24.503H42.1233C42.2969 24.5055 42.472 24.508 42.6456 24.5084C42.8196 24.5089 42.9938 24.5091 43.1679 24.5084C43.3416 24.5078 43.5164 24.5055 43.6901 24.503C43.8678 24.5005 44.0456 24.5006 44.2233 24.503C44.3978 24.5053 44.5739 24.507 44.7483 24.5084C44.9579 24.5104 45.1591 24.5466 45.3362 24.6315C45.6164 24.7662 45.7104 25.0369 45.7108 25.2932C45.711 25.4708 45.7094 25.6488 45.7054 25.8264ZM16.71 11.8401C16.7117 12.0184 16.7108 12.1977 16.7073 12.376C16.7039 12.5483 16.702 12.7206 16.7018 12.8928C16.7017 13.0676 16.7018 13.2431 16.7018 13.4178C16.7019 13.5927 16.6996 13.7679 16.6991 13.9428C16.6987 14.1156 16.7019 14.2896 16.7046 14.4624C16.7074 14.6406 16.7067 14.8201 16.7046 14.9983L16.6991 16.0428C16.6989 16.2139 16.6982 16.3858 16.6991 16.5569C16.7403 16.5194 16.7832 16.4817 16.8249 16.4448C16.9533 16.3309 17.0795 16.2146 17.205 16.0975C17.3337 15.9774 17.4633 15.8581 17.5932 15.7393C17.7217 15.6218 17.8506 15.5044 17.9788 15.3866C18.107 15.2686 18.2364 15.1494 18.3643 15.0311C18.4926 14.9124 18.6219 14.7919 18.7499 14.6729C18.8779 14.5539 19.0068 14.4358 19.1354 14.3174C19.2627 14.2004 19.3904 14.0813 19.5155 13.962C19.6443 13.8391 19.7743 13.7175 19.9065 13.5983C20.0364 13.4812 20.1679 13.3628 20.2975 13.2456C20.4242 13.131 20.5493 13.0142 20.6721 12.8956C20.7997 12.7724 20.9277 12.6496 21.0577 12.5292C21.1884 12.408 21.3228 12.2884 21.4569 12.1709C21.5859 12.0579 21.7137 11.9427 21.8397 11.8264C21.9676 11.7085 22.0956 11.5898 22.2225 11.4709C22.3506 11.3511 22.4793 11.2319 22.6081 11.1127C22.7358 10.9945 22.8641 10.8765 22.9909 10.7573C23.1201 10.6357 23.2501 10.5151 23.3819 10.3963C23.5113 10.2798 23.639 10.1611 23.7675 10.0436C23.894 9.92782 24.0189 9.81025 24.1421 9.69087C24.2698 9.56712 24.3997 9.44501 24.5304 9.32446C24.6598 9.20508 24.7906 9.08696 24.9214 8.96899C25.051 8.85199 25.1803 8.73358 25.3096 8.61626C25.4381 8.49974 25.5654 8.38164 25.6925 8.26353C25.8204 8.14456 25.9502 8.02716 26.078 7.90806C26.2062 7.78859 26.3351 7.66906 26.4636 7.54985C26.5926 7.43006 26.7212 7.30978 26.8518 7.19165C26.9811 7.07477 27.1117 6.95664 27.2401 6.83892C27.367 6.72257 27.4929 6.60502 27.6175 6.48618C27.7456 6.36397 27.8754 6.24233 28.0057 6.12251C28.1348 6.00383 28.2641 5.88483 28.394 5.76704C28.4161 5.74699 28.4376 5.72426 28.4596 5.70415H27.7186C27.5456 5.70414 27.3721 5.70711 27.1991 5.70962C27.0216 5.7122 26.8434 5.71134 26.6659 5.70962L25.6159 5.70415C25.4418 5.70332 25.2677 5.70149 25.0936 5.70142C24.9201 5.70134 24.7449 5.70211 24.5714 5.70415C24.3945 5.70622 24.2177 5.70867 24.0409 5.70688C23.8682 5.70513 23.694 5.70243 23.5214 5.70415C23.3446 5.70591 23.1677 5.70798 22.9909 5.70688C22.8177 5.70582 22.6445 5.70535 22.4714 5.70688C22.2958 5.70845 22.1193 5.70899 21.9436 5.70962C21.7687 5.71025 21.5936 5.71211 21.4186 5.71235C21.2419 5.7126 21.0649 5.71205 20.8882 5.70962C20.7141 5.70722 20.54 5.70535 20.3659 5.70415C20.1931 5.70296 20.0192 5.70213 19.8464 5.70415C19.6707 5.7062 19.4943 5.709 19.3186 5.70962C19.1445 5.71024 18.9705 5.7086 18.7964 5.70962C18.6183 5.71067 18.4385 5.7106 18.2604 5.70688C18.0891 5.70332 17.9177 5.70304 17.7464 5.70415C17.5726 5.70528 17.3979 5.7071 17.2241 5.70962C17.0612 5.71198 16.8975 5.70955 16.7346 5.70962C16.7204 5.81889 16.7079 5.93915 16.7073 6.07056C16.7065 6.24366 16.7084 6.41698 16.71 6.59009C16.7117 6.76874 16.7086 6.94738 16.7046 7.12603C16.7006 7.29803 16.6986 7.47082 16.6991 7.64282C16.6996 7.81839 16.6998 7.99498 16.6991 8.17056C16.6985 8.34191 16.7006 8.51327 16.7046 8.68462C16.7087 8.86306 16.7112 9.04212 16.71 9.22056C16.7089 9.39527 16.708 9.57084 16.7073 9.74556V11.3178C16.7072 11.4917 16.7084 11.6662 16.71 11.8401ZM0.705743 2.91782C0.707523 3.09464 0.707843 3.27147 0.705743 3.44829C0.703673 3.62202 0.700781 3.79682 0.700275 3.97056C0.699771 4.14405 0.701272 4.31933 0.703009 4.49282C0.704758 4.6676 0.706964 4.84304 0.708478 5.01782C0.710011 5.19555 0.708852 5.37329 0.705743 5.55103C0.702734 5.723 0.701554 5.89585 0.703009 6.06782C0.704483 6.24191 0.706242 6.416 0.708478 6.59009C0.710778 6.76908 0.709571 6.94977 0.705743 7.12876C0.702112 7.2992 0.703326 7.46965 0.705743 7.64009C0.708239 7.81595 0.707705 7.99196 0.708478 8.16782C0.709251 8.34436 0.710322 8.52175 0.708478 8.69829C0.706658 8.87219 0.703626 9.04665 0.703009 9.22056C0.702389 9.39574 0.703904 9.57311 0.703009 9.74829C0.702145 9.91965 0.702427 10.091 0.705743 10.2624C0.709186 10.4397 0.711489 10.6182 0.711212 10.7956V11.8483C0.709536 12.0223 0.708767 12.1966 0.708478 12.3706C0.708186 12.5464 0.704915 12.7224 0.703009 12.8983C0.701145 13.0701 0.702884 13.2433 0.705743 13.4151C0.708682 13.5919 0.70873 13.7687 0.708478 13.9456C0.708228 14.1204 0.708503 14.2957 0.708478 14.4706C0.708453 14.6446 0.71021 14.8187 0.711212 14.9928C0.712241 15.1713 0.710151 15.3502 0.705743 15.5288C0.701498 15.7007 0.699963 15.8736 0.700275 16.0456C0.700593 16.2177 0.701705 16.3902 0.705743 16.5624C0.709971 16.7428 0.710296 16.9233 0.705743 17.1038C0.701442 17.2741 0.701106 17.4447 0.703009 17.6151C0.705004 17.7924 0.704539 17.971 0.703009 18.1483C0.701527 18.3202 0.702699 18.4932 0.705743 18.6651C0.708854 18.841 0.710359 19.0169 0.711212 19.1928C0.712074 19.3711 0.709838 19.5505 0.705743 19.7288C0.701837 19.8991 0.70036 20.0698 0.703009 20.2401C0.705754 20.4167 0.708308 20.594 0.708478 20.7706C0.708646 20.9454 0.708391 21.1207 0.708478 21.2956C0.708565 21.4696 0.710319 21.6437 0.711212 21.8178C0.712114 21.9935 0.711554 22.1698 0.711212 22.3456C0.710868 22.5221 0.708481 22.6994 0.705743 22.876V24.4456C0.705785 24.6187 0.706135 24.7919 0.708478 24.9651C0.710895 25.1436 0.711896 25.3225 0.708478 25.501C0.705159 25.6738 0.703071 25.8478 0.703009 26.0206C0.702947 26.1946 0.702189 26.3687 0.703009 26.5428C0.703832 26.7173 0.704097 26.8934 0.705743 27.0678C0.707406 27.2447 0.707907 27.4215 0.705743 27.5983C0.70361 27.772 0.703751 27.9469 0.703009 28.1206C0.702274 28.2932 0.702973 28.4675 0.705743 28.6401V30.7428C0.706774 30.9177 0.707648 31.0929 0.708478 31.2678C0.709318 31.445 0.710953 31.6238 0.708478 31.801C0.706062 31.9742 0.703804 32.1474 0.703009 32.3206C0.702216 32.4941 0.701603 32.6693 0.703009 32.8428C0.704426 33.0177 0.707101 33.193 0.708478 33.3678C0.709859 33.5433 0.710779 33.7201 0.711212 33.8956C0.71164 34.0728 0.709396 34.2515 0.705743 34.4288C0.702233 34.5998 0.70136 34.7718 0.703009 34.9428C0.704708 35.1196 0.704607 35.2965 0.703009 35.4733C0.701436 35.6473 0.700324 35.8216 0.700275 35.9956C0.700226 36.1696 0.699671 36.3437 0.700275 36.5178C0.700878 36.6915 0.703827 36.8664 0.705743 37.0401C0.707683 37.2156 0.707621 37.3923 0.708478 37.5678C0.709342 37.7453 0.708595 37.9236 0.705743 38.101C0.702994 38.2722 0.703035 38.4439 0.705743 38.6151C0.708524 38.791 0.710425 38.9669 0.711212 39.1428C0.712006 39.3209 0.709574 39.5007 0.705743 39.6788C0.70311 39.8042 0.717253 39.9115 0.735822 40.0041C0.903537 40.006 1.07123 40.0067 1.23895 40.0041C1.41547 40.0014 1.5929 40.0012 1.76942 40.0014C1.94581 40.0017 2.12349 40.0015 2.29988 40.0041C2.47106 40.0067 2.64277 40.007 2.81395 40.0041C2.99118 40.0012 3.16992 40.0009 3.34715 40.0014C3.52307 40.0019 3.69897 40.004 3.87488 40.0069H4.92215C5.0963 40.0084 5.273 40.0093 5.44715 40.0096C5.61941 40.0099 5.79169 40.0097 5.96395 40.0069C6.14305 40.004 6.32351 40.0035 6.50262 40.0069C6.67461 40.0102 6.84743 40.0104 7.01942 40.0096C7.19529 40.0088 7.37127 40.0087 7.54715 40.0096C7.71901 40.0105 7.89209 40.0106 8.06395 40.0069C8.24338 40.0031 8.42318 40.0033 8.60262 40.0069C8.77215 40.0103 8.94168 40.0079 9.11121 40.0041C9.28994 40.0002 9.47116 39.9996 9.64988 40.0014C9.82458 40.0032 10.0002 40.005 10.1749 40.0069C10.3481 40.0087 10.5212 40.0095 10.6944 40.0096C10.8672 40.0097 11.0411 40.01 11.2139 40.0069C11.3905 40.0037 11.5679 40.0023 11.7444 40.0014C11.9221 40.0006 12.0999 40.0003 12.2776 40.0041C12.4487 40.0079 12.6206 40.0089 12.7917 40.0069C12.9684 40.0048 13.1454 40.0033 13.3221 40.0041C13.4951 40.005 13.6688 40.0063 13.8417 40.0041C14.0203 40.002 14.199 40.0029 14.3776 40.0069C14.5488 40.0107 14.7205 40.0113 14.8917 40.0096C15.0676 40.0079 15.2435 40.0068 15.4194 40.0069C15.5932 40.007 15.7679 40.0052 15.9417 40.0041C16.0543 40.0034 16.1458 39.9773 16.2233 39.9276C16.34 39.8523 16.4556 39.7612 16.5651 39.6541C16.6909 39.5312 16.8155 39.4068 16.9425 39.285C17.0676 39.165 17.1935 39.0457 17.3171 38.9241C17.4424 38.8006 17.5678 38.6772 17.6944 38.5549C17.8195 38.4342 17.945 38.3131 18.069 38.1913L18.8128 37.453C18.9372 37.3296 19.0627 37.2042 19.1874 37.0811C19.3121 36.9579 19.4364 36.8343 19.562 36.712L20.3112 35.9791C20.4369 35.8553 20.5641 35.7323 20.6913 35.61C20.8156 35.4905 20.9386 35.3684 21.0604 35.2463C21.1847 35.1218 21.3094 34.9977 21.435 34.8745C21.5592 34.7526 21.6835 34.6307 21.8069 34.5081C21.932 34.3838 22.0578 34.259 22.1843 34.1362C22.3096 34.0145 22.4361 33.894 22.5616 33.7725C22.6862 33.6519 22.8105 33.5284 22.9335 33.4061C23.0582 33.282 23.1847 33.1597 23.3108 33.037C23.4354 32.9158 23.5591 32.7927 23.6827 32.6706C23.8061 32.5487 23.9301 32.425 24.0518 32.3014C24.1763 32.1752 24.302 32.0502 24.4292 31.9268C24.5544 31.8054 24.6792 31.6825 24.8038 31.5604C24.929 31.4377 25.0554 31.3162 25.1811 31.194C25.3045 31.0741 25.4268 30.9529 25.5475 30.8303C25.6722 30.7037 25.8001 30.5767 25.9276 30.453C26.053 30.3314 26.1794 30.2107 26.305 30.0893C26.4291 29.9693 26.5522 29.8479 26.6741 29.7256C26.8 29.5993 26.9274 29.4737 27.0569 29.351C27.1821 29.2324 27.3062 29.1114 27.4288 28.9901C27.5516 28.8686 27.6741 28.7469 27.7952 28.6237C27.9203 28.4964 28.0493 28.3699 28.178 28.2463C28.3031 28.1263 28.4262 28.004 28.5499 27.8827C28.6739 27.761 28.8362 27.6008 29.0366 27.4014H29.0393L29.1815 27.2592L29.6655 26.7807C29.7901 26.6541 29.9181 26.5298 30.0456 26.4061C30.1704 26.2849 30.2934 26.1617 30.4175 26.0397C30.5435 25.9157 30.6724 25.7926 30.8003 25.6706C30.9257 25.5508 31.0507 25.4306 31.1749 25.3096C31.2995 25.1883 31.4232 25.0656 31.5468 24.9432C31.6421 24.8487 31.7129 24.7748 31.7628 24.7245L31.7682 24.7163L31.7764 24.7081V24.5084L31.9815 24.5057C32.0263 24.4612 32.0972 24.3936 32.1893 24.3006C32.3132 24.1756 32.4384 24.052 32.5639 23.9288C32.6907 23.8043 32.8199 23.6812 32.9495 23.5596C33.0741 23.4427 33.1954 23.3225 33.3159 23.2014C33.4399 23.0767 33.5652 22.9529 33.6905 22.8295C33.8157 22.7064 33.942 22.5828 34.0679 22.4604C34.1925 22.3391 34.316 22.2162 34.4397 22.094C34.5636 21.9716 34.6886 21.8482 34.8116 21.7249C34.9358 21.6004 35.0608 21.4762 35.1862 21.353C35.3108 21.2306 35.436 21.1088 35.5608 20.9866C35.6862 20.8637 35.8122 20.7397 35.9382 20.6174C36.0639 20.4954 36.1896 20.3728 36.3155 20.251C36.4406 20.13 36.5659 20.0092 36.6901 19.8874C36.8144 19.7655 36.9384 19.6435 37.062 19.5209C37.1858 19.3982 37.3106 19.2751 37.4339 19.1518C37.5598 19.0258 37.6875 18.8998 37.8167 18.7772C37.9418 18.6584 38.0657 18.5374 38.1886 18.4163C38.312 18.2945 38.4354 18.1728 38.5577 18.0499C38.6825 17.9243 38.8081 17.7986 38.935 17.6752C39.0594 17.5544 39.1837 17.4336 39.3069 17.3116C39.4323 17.1874 39.5601 17.0623 39.687 16.9397C39.8105 16.8203 39.9329 16.6985 40.0534 16.576C40.1775 16.45 40.3044 16.3251 40.4307 16.2014C40.5551 16.0797 40.6784 15.9569 40.8026 15.835C40.9283 15.7116 41.0555 15.5878 41.1827 15.4659C41.3068 15.347 41.4307 15.2268 41.5518 15.1049C41.6774 14.9786 41.8058 14.8533 41.9346 14.7303C42.0579 14.6128 42.1798 14.4917 42.2983 14.3694C42.4222 14.2416 42.548 14.1159 42.6757 13.992C42.8017 13.8698 42.9291 13.7473 43.0557 13.6256C43.1812 13.5051 43.3058 13.3834 43.4304 13.262C43.5548 13.1406 43.6789 13.0181 43.8022 12.8956C43.927 12.7716 44.0538 12.6493 44.1796 12.5264C44.3045 12.4044 44.4291 12.2819 44.5542 12.16C44.6784 12.0391 44.8032 11.9167 44.9261 11.7936C44.9845 11.7351 45.0084 11.6727 45.0081 11.5913V10.5413C45.008 10.3681 45.0052 10.1949 45.0026 10.0217C44.9999 9.84316 44.9996 9.66436 45.0026 9.48579C45.0055 9.3131 45.0086 9.13895 45.0081 8.96626C45.0075 8.79149 45.0057 8.61602 45.0054 8.44126C45.005 8.26739 45.0043 8.09287 45.0026 7.91899V6.87173C44.9999 6.69315 45.002 6.51437 45.0054 6.33579C45.0086 6.1632 45.0084 5.98885 45.0081 5.81626C45.0078 5.6415 45.0085 5.46601 45.0081 5.29126C45.0077 5.11732 45.0069 4.94294 45.0054 4.76899V3.71899C45.0035 3.54125 45.0051 3.36353 45.0081 3.18579V1.62173C45.0057 1.44605 45.0034 1.26968 45.0026 1.09399C45.002 0.957604 44.9938 0.827621 44.9835 0.705713C44.8286 0.703878 44.6735 0.704524 44.5186 0.705713C44.3436 0.707057 44.1686 0.707531 43.9936 0.708447C43.8161 0.709376 43.6379 0.708564 43.4604 0.705713C43.2882 0.702947 43.1159 0.699691 42.9436 0.700244C42.769 0.700813 42.5932 0.701827 42.4186 0.702979C42.2427 0.704139 42.0668 0.70603 41.8909 0.705713C41.7178 0.7054 41.5445 0.706266 41.3714 0.708447C41.1924 0.710706 41.0116 0.709506 40.8327 0.705713C40.6623 0.702115 40.4918 0.700429 40.3214 0.702979C40.1436 0.705637 39.9659 0.707909 39.7882 0.705713C39.6163 0.703579 39.4432 0.7032 39.2714 0.705713C39.0946 0.708297 38.9177 0.708569 38.7409 0.708447C38.565 0.708326 38.3891 0.707916 38.2132 0.705713C38.0395 0.703533 37.8645 0.703118 37.6909 0.702979H35.5882C35.4159 0.701727 35.2436 0.703194 35.0714 0.705713H34.0241C33.8459 0.709028 33.6664 0.710102 33.4882 0.708447C33.3146 0.706834 33.1395 0.705216 32.9659 0.705713C32.7921 0.706213 32.6175 0.706889 32.4436 0.708447C32.2672 0.710025 32.0896 0.712189 31.9132 0.711182H30.8659C30.6893 0.711215 30.512 0.711038 30.3354 0.708447H29.2854C29.1142 0.705488 28.9426 0.703274 28.7714 0.705713C28.5938 0.708242 28.4157 0.70976 28.2382 0.708447C28.0632 0.707153 27.8882 0.704635 27.7132 0.702979C27.5401 0.701339 27.3667 0.702314 27.1936 0.702979L26.1436 0.708447C25.9659 0.709599 25.7881 0.708779 25.6104 0.705713C25.4386 0.702745 25.2655 0.70134 25.0936 0.702979H24.0436C23.8672 0.7048 23.6896 0.706748 23.5132 0.705713C23.34 0.704701 23.1668 0.70473 22.9936 0.705713C22.8169 0.706717 22.6399 0.704805 22.4632 0.702979C22.2902 0.701188 22.1166 0.701871 21.9436 0.702979C21.7696 0.704093 21.5954 0.706003 21.4214 0.708447C21.2428 0.710956 21.064 0.708908 20.8854 0.705713C20.7124 0.702612 20.5389 0.700989 20.3659 0.700244C20.1931 0.699505 20.0192 0.701067 19.8464 0.702979C19.6718 0.704917 19.496 0.706055 19.3214 0.708447C19.1447 0.710869 18.9676 0.711284 18.7909 0.711182C18.6159 0.71108 18.4409 0.711731 18.2659 0.711182C18.0904 0.71063 17.9137 0.709786 17.7382 0.708447C17.5653 0.707131 17.3915 0.706748 17.2186 0.708447C17.0401 0.71019 16.8612 0.709842 16.6827 0.705713C16.5113 0.701754 16.34 0.699209 16.1686 0.700244C15.995 0.701296 15.82 0.70543 15.6464 0.708447C15.4687 0.711526 15.2909 0.709982 15.1132 0.708447C14.9391 0.706943 14.765 0.70602 14.5909 0.705713C14.4169 0.705407 14.2426 0.707376 14.0686 0.708447C13.8919 0.709536 13.7149 0.707594 13.5382 0.705713C13.3654 0.70387 13.1914 0.704304 13.0186 0.705713C12.8427 0.707146 12.6668 0.70871 12.4909 0.708447C12.3169 0.708187 12.1427 0.707633 11.9686 0.708447C11.7906 0.709281 11.6107 0.709464 11.4327 0.705713H10.3854C10.2148 0.702303 10.042 0.699947 9.87137 0.702979C9.69363 0.706127 9.51591 0.707352 9.33817 0.705713C9.16364 0.704102 8.98769 0.703881 8.81317 0.702979C8.64181 0.702103 8.47046 0.702486 8.2991 0.705713C8.1202 0.709092 7.93933 0.71105 7.76043 0.708447C7.58725 0.705931 7.41408 0.703633 7.2409 0.702979C7.06896 0.702332 6.89605 0.702473 6.7241 0.705713C6.54507 0.709096 6.36447 0.711262 6.18543 0.708447C6.01407 0.705756 5.84272 0.703324 5.67137 0.705713C5.49371 0.708192 5.31582 0.710376 5.13817 0.708447C4.96557 0.706568 4.79123 0.706773 4.61863 0.708447C4.44294 0.710148 4.2666 0.711046 4.0909 0.711182C3.91408 0.711314 3.73725 0.709184 3.56043 0.705713C3.38887 0.702338 3.2152 0.701299 3.04363 0.702979C2.86955 0.704684 2.69545 0.706056 2.52137 0.708447C2.34227 0.710907 2.1618 0.709552 1.9827 0.705713C1.81317 0.702093 1.64363 0.702493 1.4741 0.705713C1.29514 0.709128 1.1144 0.711117 0.935431 0.708447C0.819169 0.706784 0.751499 0.724528 0.713947 0.743994C0.7112 0.754006 0.705073 0.776619 0.705743 0.815088C0.708833 0.992812 0.710026 1.17056 0.708478 1.34829C0.706953 1.52328 0.707336 1.6983 0.705743 1.87329C0.704162 2.04709 0.702807 2.22175 0.703009 2.39556C0.703213 2.56925 0.703987 2.74412 0.705743 2.91782Z" fill="#FEE685"/>
</svg>
